<?xml version="1.0" encoding="UTF-8"?>
<svg width="190px" height="43px" viewBox="0 0 190 43" version="1.1" xmlns="http://www.w3.org/2000/svg" xmlns:xlink="http://www.w3.org/1999/xlink">
    <!-- Generator: Sketch 48.1 (47250) - http://www.bohemiancoding.com/sketch -->
    <title>LVGMC-logo</title>
    <desc>Created with Sketch.</desc>
    <defs></defs>
    <g id="Meteo-hederis" stroke="none" stroke-width="1" fill="none" fill-rule="evenodd" transform="translate(-45.000000, -18.000000)">
        <g id="Logo-dalja">
            <g transform="translate(45.000000, 0.000000)">
                <g id="Logo/Dark" transform="translate(0.500000, 18.000000)">
                    <g id="LVGMC-logo" transform="translate(0.000000, 0.100000)">
                        <g id="detalja">
                            <circle id="new_vector_shape_done" fill="#0B4787" fill-rule="nonzero" cx="21.3818182" cy="21.3818182" r="21.3818182"></circle>
                            <path d="M11.8363636,33.9818182 C11.1787773,33.9797182 10.9247727,33.66405 10.4522727,33.5045455 C10.1731636,33.4103318 9.73731818,33.6879136 9.40227273,33.6954545 C9.28686818,33.5350909 9.18931364,33.4869818 9.16363636,33.2181818 C9.73636364,32.8584136 8.89932273,31.5495409 8.87727273,31.0227273 C8.28259091,30.9629727 8.14876364,30.4721455 7.73181818,30.2590909 C7.40307273,30.0910909 7.04616818,30.2632909 6.72954545,30.2113636 L6.49090909,29.8772727 C6.62616818,29.6325273 6.72687273,29.4522136 6.87272727,29.2090909 L6.96818182,29.2090909 C7.14143182,28.8616364 6.84304091,28.3998273 6.77727273,28.2545455 L6.77727273,27.3954545 L6.63409091,27.3954545 C6.56211818,27.2904545 6.47535,27.2891182 6.39545455,27.2045455 C6.18545455,26.9825182 6.13104545,26.5060091 5.87045455,26.3454545 C5.44568182,26.0836227 4.89471818,26.3613955 4.86818182,25.6772727 C5.07169091,25.5451636 5.44682727,25.2415227 5.53636364,25.0090909 L5.53636364,24.1022727 C5.59812273,23.9209091 5.71066364,23.6822727 5.72727273,23.4340909 C5.49818182,23.2582636 5.29772727,22.8761591 5.15454545,22.6227273 C5.07770455,22.4867045 5.145,22.3604182 5.05909091,22.2409091 C4.59031364,21.5853273 4.28772273,22.1599636 4.29545455,20.8090909 C4.47681818,20.6140773 4.45772727,20.5155682 4.86818182,20.5227273 C4.89415453,20.5483272 4.92757282,20.5650363 4.96363636,20.5704545 C5.05527273,20.7422727 5.06481818,20.9904545 5.05909091,21.2863636 C5.56070455,21.5884773 5.64957273,21.92925 5.91818182,22.4795455 C6.08522727,22.82175 6.48279545,23.0586682 6.72954545,23.3386364 C6.65671364,23.6944909 6.42981818,23.7743864 6.34772727,24.0545455 L6.34772727,24.8181818 C6.27565909,25.1364273 6.13467273,25.3401273 6.10909091,25.6772727 L6.25227273,25.6772727 C6.32462727,25.7822727 6.40986818,25.7834182 6.49090909,25.8681818 C6.72400909,26.1121636 6.78624545,26.5295864 7.06363636,26.7272727 C7.45757727,27.0079091 7.73344091,26.7716591 7.73181818,27.4909091 C7.28270455,27.6852545 7.69974545,28.35 7.73181818,28.6363636 C7.75720909,28.8635455 7.68218182,29.3981864 7.68409091,29.4 C7.79787273,29.5293409 7.96558636,29.4894409 8.11363636,29.5909091 C8.31327815,29.7392183 8.50448473,29.8985571 8.68636364,30.0681818 C8.71729091,30.0955773 8.75003182,30.24105 8.78181818,30.2590909 L9.49772727,30.2590909 C9.66849545,30.4729091 9.74590909,30.4901864 9.73636364,30.9272727 C9.62011696,31.0376991 9.5823721,31.207551 9.64090909,31.3568182 C9.71469545,31.5477273 9.94512273,31.7873182 10.0227273,31.9772727 C10.1231455,32.2233545 10.0439182,32.6225455 10.1181818,32.7409091 C10.3103318,32.8632818 10.5848591,32.7439636 10.8340909,32.8363636 C11.03235,32.9098636 11.2739455,33.1322727 11.4545455,33.2181818 C11.7577091,33.3619364 12.1103182,33.1280727 12.4090909,33.1227273 C12.5519477,33.4198049 12.6176071,33.7481023 12.6,34.0772727 C12.69975,34.1285318 13.2029864,34.6472318 13.2681818,34.7454545 C13.3396773,34.8531273 13.3075091,35.1603 13.4113636,35.2227273 L13.6977273,35.2227273 C13.9312091,34.9629 14.7673909,35.3871955 15.1295455,35.4136364 C15.2607955,35.2350409 15.4369091,35.1309955 15.75,35.1272727 C15.8746636,35.3277273 16.0674818,35.8407955 16.2272727,35.9863636 C16.3890682,36.1337455 16.6170136,36.1406182 16.8,36.2727273 C17.0139136,36.4271727 17.0785364,36.7752 17.3727273,36.8454545 C17.6581364,36.3431727 18.3285136,36.7751045 18.8522727,36.5590909 C19.1428364,36.4392 19.0728682,36.1860545 19.5681818,36.1772727 C19.7941392,36.5347313 20.1058583,36.8300441 20.475,37.0363636 C20.6521636,37.1280955 20.8384909,37.1189318 21,37.2272727 C21.1846091,37.3513636 21.2951455,37.6943318 21.4772727,37.8 L22.8136364,37.8 C23.0151409,37.6674136 23.2800273,37.7792864 23.5772727,37.7045455 C24.21615,37.5438955 24.9549682,37.4162727 25.5340909,37.2272727 L25.8204545,37.2272727 C26.4981818,36.9664909 27.2461636,36.7757727 27.9204545,36.4636364 C28.8088845,36.0335566 29.6556671,35.5222916 30.45,34.9363636 C30.7840909,34.6977273 31.1988409,34.5354545 31.5,34.2681818 C33.4116682,32.5713818 35.0392636,30.5797227 36.1772727,28.1113636 C36.4959955,27.4201773 36.7083818,26.6360182 36.9409091,25.9159091 C37.0256727,25.6534091 36.9531273,25.5108955 37.0363636,25.2477273 C37.1969182,24.7401 37.28235,24.0329727 37.4181818,23.4818182 L37.4181818,22.7181818 C37.4990318,22.3415182 37.6377273,21.5908636 37.5136364,21.0954545 C37.2505636,20.04135 36.6801273,19.2945136 36.3681818,18.2318182 C36.2524909,17.8378773 36.4776682,17.2215273 36.5590909,16.9431818 C36.6858545,16.5097227 36.4827273,15.6315409 36.3681818,15.3681818 C35.8151182,14.0979682 34.5026182,13.65735 33.8863636,12.5522727 C33.4828773,11.8288227 33.5458773,10.8054545 33.0272727,10.2136364 C32.7579,9.90608182 32.14155,9.41926364 31.7386364,9.25909091 L31.4522727,9.25909091 C31.0635818,9.1119 30.5820136,8.97606818 30.2590909,8.78181818 L30.0681818,8.78181818 C29.5968273,8.46681818 29.3011091,7.95451364 28.9227273,7.54090909 C28.3742287,6.91556819 27.6642152,6.45323384 26.8704545,6.20454545 C25.9904591,5.94128182 25.0027909,6.57586364 24.2454545,6.3 C23.5417636,6.04370455 22.9075636,5.60394545 22.2409091,5.34545455 C21.63,5.10844091 20.9966591,5.55144545 21,4.62954545 C21.2401636,4.46412273 21.6624545,4.47681818 22.0977273,4.48636364 C22.2953182,4.65407727 22.6161409,4.65045 22.8613636,4.77272727 C23.3329091,5.00773636 23.8159091,5.34946364 24.3409091,5.53636364 C24.6895091,5.66045455 25.3701,5.50180909 25.5818182,5.44090909 C25.9492227,5.33524091 27.0956318,5.44014545 27.3477273,5.53636364 C28.1325093,5.85004754 28.8346808,6.33993462 29.4,6.96818182 C29.7764727,7.38006818 30.0657,7.90602273 30.5454545,8.20909091 C30.9441682,8.4609 31.6362136,8.37136364 32.0727273,8.59090909 C32.5690909,8.84080909 33.1467818,9.23799545 33.5045455,9.64090909 C33.9255955,10.1150318 34.1238545,10.8548045 34.3636364,11.5022727 C34.4691136,11.7871091 34.4063045,11.9873727 34.5545455,12.2181818 C34.8910227,12.7420364 35.4403636,13.0467273 35.8909091,13.4590909 C36.4310246,13.9666215 36.8544259,14.5854387 37.1318182,15.2727273 C37.2951409,15.6911045 37.3659682,16.4429045 37.2272727,16.8477273 L37.2272727,17.4681818 C37.1804045,17.6047773 37.0352182,18.0531273 37.1318182,18.3272727 C37.3467818,18.9371318 37.695,19.5153955 37.9909091,20.0454545 C38.1257864,20.2871455 38.1882136,20.7880909 38.2772727,21.0477273 C38.4526227,21.5590773 38.1839182,22.4105318 38.1818182,22.8613636 C38.1740864,24.5573045 37.5607909,26.83065 36.9409091,27.9681818 C36.8530909,28.1292136 36.9347045,28.2854727 36.8454545,28.4454545 C36.5146091,29.0386091 36.1559864,29.7054545 35.7954545,30.2590909 L35.7954545,30.45 C32.8480091,34.8886364 28.4269364,38.5121864 21.0954545,38.5636364 C20.9020636,38.2400455 20.6328818,37.8668182 20.2840909,37.7045455 C20.0836364,37.6113818 19.9146818,37.6399227 19.7590909,37.5136364 C19.5872727,37.3742727 19.4979273,37.1859409 19.2340909,37.1318182 C18.9347455,37.4802273 18.4396227,37.1328682 17.9454545,37.3227273 C17.6113636,37.4513045 17.4950045,37.8985091 17.1340909,37.9909091 C17.02155,38.0606864 16.9542545,38.0119091 16.8,37.9909091 C16.6862182,37.6633091 16.5891409,37.0351227 16.3227273,36.8454545 C16.2053182,36.7618364 15.9646773,36.7404545 15.8454545,36.6545455 C15.6371727,36.5040136 15.5550818,36.1486364 15.2727273,36.0818182 C14.8951091,36.4808182 14.2934591,35.7154636 13.7931818,35.8909091 C13.4421955,36.0140455 13.3731818,36.3490909 12.8863636,36.3681818 L12.7431818,36.225 C12.5638227,35.9793 12.80895,35.7315955 12.6954545,35.3659091 C12.5230636,34.8103636 11.9102455,34.6651773 11.8363636,33.9818182 Z M19.4727273,4.53409091 C19.5919697,4.52446207 19.7106615,4.558374 19.8068182,4.62954545 C19.9248,4.74189545 19.9485682,4.81778182 19.95,5.05909091 C19.8860821,5.10880052 19.8366424,5.17472013 19.8068182,5.25 C19.4437864,5.30902722 19.0768624,5.34093366 18.7090909,5.34545455 C18.6375616,5.16332402 18.6050429,4.96821159 18.6136364,4.77272727 C18.7236955,4.73225455 18.8140909,4.61503636 18.9,4.58181818 C19.0835591,4.51060909 19.3364182,4.62181364 19.4727273,4.53409091 Z M16.6568182,5.05909091 C17.0789182,5.04811364 17.1913636,5.17688182 17.2772727,5.48863636 C17.2237399,5.54770424 17.1758069,5.61161489 17.1340909,5.67954545 C16.9443273,5.86892727 16.4735455,5.99845909 16.1318182,6.01363636 C15.9868227,5.82912273 15.8621591,5.82683182 15.8454545,5.48863636 L16.0840909,5.25 C16.2785318,5.15110909 16.5205091,5.20790455 16.6568182,5.05909091 Z M14.1272727,6.01363636 L14.5568182,6.01363636 C14.6626679,6.18512663 14.7126955,6.38523707 14.7,6.58636364 C14.32515,6.70501364 14.1344318,6.97362273 13.65,7.01590909 C13.5568364,6.91234091 13.4628136,6.78242727 13.3636364,6.68181818 C13.3683933,6.64554885 13.3852024,6.61193082 13.4113636,6.58636364 C13.5259091,6.19137273 13.8994227,6.27231818 14.1272727,6.01363636 Z M11.7886364,7.35 L12.2181818,7.35 C12.2830909,7.51647273 12.3709091,7.57164545 12.4090909,7.77954545 C12.0580091,8.05330909 11.9026091,8.39818636 11.2636364,8.4 C11.1987273,8.23352727 11.1109091,8.17835455 11.0727273,7.97045455 C11.2445455,7.84741364 11.6677909,7.51389545 11.7886364,7.35 Z M12.1227273,28.4454545 C12.1489773,28.6109727 12.2863364,28.7024182 12.2181818,28.9227273 C12.1904045,29.01255 12.0420682,29.2719 12.1227273,29.4954545 C12.2181818,29.7599591 12.3833182,30.0756273 12.4090909,30.45 C12.7707682,30.4807364 13.0997045,30.6430091 13.3636364,30.7363636 C13.6954364,30.8537727 13.9496318,30.6523636 14.2227273,30.6409091 C14.2724467,30.704817 14.3383634,30.7542544 14.4136364,30.7840909 C14.4241364,30.9490364 14.3532136,31.1898682 14.4136364,31.3568182 C14.5271318,31.6701955 14.8306773,31.9035818 14.9863636,32.1681818 C15.0436364,32.2653545 14.94045,32.3984182 15.0340909,32.4545455 L15.2727273,32.4545455 C15.5192864,32.1932864 15.9548455,32.5815 16.3227273,32.5022727 C16.5613636,32.4510136 16.5715773,32.2815818 16.8954545,32.2636364 C16.9677136,32.3526 17.1326591,32.3999455 17.1818182,32.5022727 C17.2611409,32.6676 17.1887864,32.7993273 17.2772727,32.9318182 C17.4830727,33.2396591 17.9508955,33.3103909 18.0409091,33.7431818 C18.28365,33.7092 18.4710273,33.5713636 18.6613636,33.5045455 L19.2340909,33.5045455 C19.5639818,33.3810273 19.5463227,33.1374273 20.0454545,33.1227273 C20.2806545,33.6993682 20.6277273,33.6705409 21.0954545,33.9818182 C21.2985818,34.1169818 21.3171,34.3503682 21.6204545,34.4113636 C21.9188455,34.2337227 22.4944364,34.4910682 22.8613636,34.3636364 C23.3053227,34.2094773 23.9209091,34.2490909 24.3886364,34.0772727 C25.8099545,33.5556136 27.0327273,33.1469727 28.1590909,32.3590909 C28.3449409,32.2290818 28.5616227,32.2148591 28.7318182,32.0727273 C29.8272545,31.1576045 30.9291818,30.1678364 31.7863636,29.0181818 C31.8531818,28.9280727 31.81605,28.8159136 31.8818182,28.7318182 C31.9459636,28.6498227 32.0007545,28.5401455 32.0727273,28.4454545 L32.1681818,28.4454545 L32.1681818,28.2545455 L32.2636364,28.2545455 C32.3319818,28.1642455 32.2931318,28.0701273 32.3590909,27.9681818 L32.4545455,27.9681818 L32.4545455,27.7772727 C32.6671227,27.42915 32.9217955,26.9945455 33.1227273,26.6318182 C33.2119773,26.4707864 33.1317,26.3174864 33.2181818,26.1545455 C33.4014756,25.7669317 33.5608648,25.368459 33.6954545,24.9613636 L33.6954545,24.6272727 C33.9722727,23.8617273 34.0772727,22.9612091 34.0772727,21.9068182 L34.0772727,20.8568182 C33.9019227,20.3911909 33.4917545,19.9680409 33.3136364,19.4727273 C33.0272727,18.6765409 33.6498273,17.6018182 33.3136364,16.7522727 C33.0790091,16.1593091 32.5630773,15.6615136 32.0727273,15.3204545 C31.8637773,15.1751727 31.6317273,15.0569045 31.5,14.8431818 C30.9228818,13.9070591 30.9845455,12.6601364 30.0681818,12.0272727 C29.5483364,11.6681727 28.5768,11.7236318 28.0636364,11.3590909 C27.1898455,10.7386364 27.0018955,9.77349545 25.8204545,9.35454545 C25.1365227,9.11199545 24.1022727,9.68605909 23.4340909,9.45 C22.8709091,9.25135909 22.3476273,8.89025455 21.8113636,8.68636364 C21.5440909,8.5848 21.2652682,8.68178182 21.0477273,8.54318182 C20.9376682,8.43818182 20.9123727,8.38090909 20.9045455,8.16136364 C21.2188773,7.92177273 21.2688,7.90879091 21.8590909,7.92272727 C22.01115,8.085 23.4544227,8.6667 23.7681818,8.73409091 C24.0711545,8.79909545 24.5216045,8.64875455 24.7227273,8.59090909 C25.0397318,8.49965455 25.9372909,8.60360455 26.1545455,8.68636364 C26.778032,8.93521089 27.3340043,9.32766194 27.7772727,9.83181818 C28.0574318,10.1490136 28.2051,10.5763636 28.5886364,10.7863636 C28.8502773,10.9295455 29.0820409,10.8603409 29.4,10.9772727 C30.1046455,11.2364318 30.8091,11.5653682 31.2136364,12.1227273 C31.4780455,12.4870773 31.62075,13.0027227 31.7863636,13.4590909 C31.8982364,13.7674091 31.82025,13.9835182 31.9772727,14.2227273 C32.2593409,14.6522727 32.7510273,14.8370727 33.1227273,15.1772727 C33.5402455,15.5590909 33.8681318,16.1725773 34.0772727,16.7522727 C34.1822727,17.0419773 34.1870455,18.1518273 34.0772727,18.4704545 C34.0405227,18.5770773 33.8973409,18.8971364 33.9818182,19.1386364 C34.1929636,19.7419091 34.5826091,20.2426636 34.8409091,20.8090909 L34.8409091,22.575 C34.7422091,24.0784091 34.2890864,25.8573955 33.6954545,26.9181818 C33.5736545,27.1359136 33.6102136,27.3106909 33.5045455,27.5386364 C33.3678545,27.8334955 33.1095545,28.1763682 32.9318182,28.4454545 C32.8273909,28.6035273 32.8502045,28.7688545 32.7409091,28.9227273 C30.3046227,32.3525045 26.9199,35.0997818 21.0954545,35.1272727 C20.8980545,34.7969045 20.0671227,34.1118273 19.6159091,34.0772727 C19.3834773,34.3169591 18.9859091,34.1306318 18.6613636,34.2681818 C18.58605,34.3001591 18.0455864,34.8372818 17.9454545,34.9363636 C17.7148364,34.8785182 17.5743273,34.8027273 17.5636364,34.5068182 C17.4666545,34.3893136 17.5473136,34.2962455 17.4681818,34.125 L16.6090909,33.2659091 L16.6090909,33.2181818 L15.7977273,33.2181818 C15.4716545,32.8609909 15.0652091,33.4071818 14.8909091,33.5045455 L14.4136364,33.5045455 C14.3798455,33.40785 14.2912636,33.3518182 14.2704545,33.2659091 C14.2298864,33.0984818 14.4065727,32.8242409 14.3181818,32.5977273 C14.2908818,32.5277591 13.6983955,31.5898227 13.65,31.5477273 C13.5566455,31.4872091 13.4049682,31.5502091 13.2681818,31.5 C13.0565591,31.4222045 12.6864818,31.0846773 12.3136364,31.2136364 C12.1469727,31.2709091 11.9848909,31.3799182 11.7409091,31.4045455 C11.6532404,31.2867375 11.5575593,31.1751095 11.4545455,31.0704545 C11.6947091,30.2989909 11.5761545,29.9039045 11.3113636,29.1613636 C10.9003364,29.0092091 10.6651364,28.6774091 10.3090909,28.5409091 C10.0626273,28.4464091 9.68968636,28.61565 9.49772727,28.4931818 C9.37239545,28.3737682 9.35149091,28.2753545 9.35454545,28.0159091 C9.88660909,27.6397227 9.65885455,27.0360682 9.64090909,26.25 C9.28486364,26.0409545 9.21241364,25.6670591 8.97272727,25.4863636 C8.53067727,25.1531318 8.00949545,25.5858273 8.01818182,24.7227273 C8.62660909,24.4584136 8.64321818,23.6298682 8.87727273,23.0045455 C8.50414091,22.7716364 8.48934545,22.3679591 8.20909091,22.05 C8.08671818,21.9112091 7.86946364,21.7922727 7.73181818,21.6681818 L7.73181818,20.7136364 C7.94181818,20.6133136 7.93723636,20.5227273 8.30454545,20.5227273 C8.35017273,20.6361273 8.46156818,20.7066682 8.49545455,20.8090909 L8.49545455,21.3818182 C8.53688182,21.4541727 8.72655,21.5059091 8.78181818,21.5727273 C8.96241818,21.7912227 8.97826364,22.1250273 9.16363636,22.3363636 C9.44379545,22.65585 9.72729545,22.5577227 9.73636364,23.1954545 C9.2946,23.3897045 9.50526818,23.73525 9.35454545,24.2454545 C9.30443182,24.4152682 9.18587727,24.5347773 9.16363636,24.7704545 C9.54774545,24.9548727 9.64329545,25.3821273 9.975,25.5818182 C10.1787,25.7044773 10.4809091,25.6645773 10.5954545,25.8681818 L10.5954545,26.2022727 C10.3212136,26.4027273 10.4110364,26.8090773 10.5,27.1090909 C10.5739773,27.3587045 10.3593955,27.6602455 10.4045455,27.7772727 C10.4549455,27.90795 10.7672727,27.8882864 10.8818182,27.9681818 C11.3371364,28.2849 11.3289273,28.4072727 12.1227273,28.4454545 Z M19.1386364,8.01818182 L19.7590909,8.01818182 C19.8789818,8.19696818 19.9487591,8.21224091 19.95,8.54318182 C19.8190364,8.63577273 19.8535909,8.6709 19.6159091,8.68636364 C19.5109091,8.80090909 19.0283864,8.86285909 18.8522727,8.87727273 C18.6882818,8.67233182 18.6057136,8.67424091 18.6136364,8.25681818 C18.7237909,8.19448636 19.0475727,8.11764545 19.1386364,8.01818182 Z M16.8954545,8.59090909 C17.1031636,8.60675455 17.21475,8.66727273 17.2772727,8.82954545 C17.3485773,8.90705455 17.3513455,8.92614545 17.3727273,9.06818182 C17.3212588,9.11993458 17.2877938,9.18686444 17.2772727,9.25909091 C16.8852409,9.37363636 16.6726636,9.54144545 16.1318182,9.54545455 C16.0826591,9.41181818 16.0593682,9.44532273 16.0363636,9.25909091 C15.9695455,9.15218182 16.0103045,9.10273636 16.0363636,8.97272727 C16.2449318,8.90170909 16.7522727,8.75385 16.8954545,8.59090909 Z M9.73636364,8.97272727 L10.1659091,8.97272727 C10.2724364,9.14187273 10.3137682,9.22921364 10.3090909,9.54545455 C9.91610455,9.72490909 9.95772273,10.1119773 9.35454545,10.1181818 C9.22873636,9.93051818 9.16105909,9.89806364 9.16363636,9.54545455 C9.4079285,9.41666332 9.60757241,9.21701941 9.73636364,8.97272727 Z M14.4136364,9.78409091 L14.7954545,9.83181818 C14.856962,9.98350315 14.8893449,10.1454173 14.8909091,10.3090909 C14.5821136,10.4975182 14.3152227,10.8333273 13.8886364,10.8818182 C13.7950909,10.7617364 13.7109955,10.76145 13.65,10.5954545 C13.4090727,10.1966455 14.2066909,9.93471818 14.4136364,9.78409091 Z M8.01818182,10.8818182 L8.4,10.8818182 C8.51349545,11.0511545 8.58403636,11.0529682 8.59090909,11.3590909 C8.27495455,11.634 8.27963182,12.1163318 7.68409091,12.1227273 C7.55627727,11.9528182 7.46072727,11.9535818 7.44545455,11.6454545 C7.66838388,11.4165766 7.8608792,11.1599162 8.01818182,10.8818182 Z M12.2181818,11.3590909 L12.6477273,11.3590909 C12.7498636,11.5213636 12.7934864,11.5826455 12.7909091,11.8840909 C12.5039727,12.1091727 12.3248045,12.4881273 11.8363636,12.5045455 C11.3590909,11.8920136 11.9372591,11.7630545 12.2181818,11.3590909 Z M13.2681818,26.1545455 C13.5708682,26.20065 13.6398818,26.4285955 13.8409091,26.5363636 C14.2485,26.7549545 14.6199136,26.2355864 14.6045455,27.1090909 C14.4698591,27.2297455 14.6557091,27.8688136 14.7477273,28.1113636 C14.9742409,28.1877273 15.2400818,28.1533636 15.4636364,28.2545455 L15.4636364,28.35 C15.5220545,28.37205 15.9341318,28.2569318 16.1318182,28.2545455 C16.2708955,28.6504909 16.4192318,29.4807545 16.8477273,29.5909091 C16.8921136,29.5659 17.9626364,29.4954545 18.1363636,29.4954545 C18.3482727,29.8451045 18.6136364,30.4314818 19.0431818,30.5454545 C19.2504136,30.3235227 19.6183909,30.4977273 19.8545455,30.3545455 L19.8545455,30.2590909 C19.9880504,30.1442666 20.155953,30.0771056 20.3318182,30.0681818 C20.3961545,30.1503682 20.4497045,30.0968182 20.5227273,30.1636364 C20.5386364,30.2272727 20.5545455,30.2909091 20.5704545,30.3545455 C20.7176455,30.5513727 20.9012045,30.5233091 21.1431818,30.6409091 C21.2538136,30.69465 21.3555682,30.8856545 21.4772727,30.9272727 C21.8380909,31.0507909 22.1106136,30.8376409 22.4318182,30.8318182 C23.3577273,30.8149227 24.1926682,30.4524818 24.8659091,30.1636364 L25.1045455,30.1636364 C27.4992136,28.8809182 28.6459091,27.6419182 29.9727273,25.2954545 C30.1385318,25.0022182 30.1286045,24.62355 30.2590909,24.2931818 C30.4044682,23.9253 30.5225455,23.3653636 30.6409091,22.9568182 L30.6409091,22.2409091 C30.6923591,22.0895182 30.8401227,21.5758773 30.7363636,21.2863636 C30.5721818,20.8281818 30.2377091,20.4348136 30.0681818,19.95 C29.8718318,19.3887273 30.3667636,18.6010364 30.0681818,17.9454545 C29.7889773,17.3324455 29.1389318,17.0915182 28.7318182,16.6090909 C28.3881818,16.2016909 28.4822045,15.4224955 28.1590909,14.9863636 C27.6834409,14.3443364 26.7599182,14.4860864 26.1545455,14.0318182 C25.7892409,13.7576727 25.5499364,13.1905773 25.2,12.8863636 C24.9772091,12.6926864 24.1940045,12.4238864 23.6727273,12.6 C23.5437682,12.6435273 23.1274909,12.7891909 22.8613636,12.6954545 C22.5168733,12.5591909 22.182015,12.3997346 21.8590909,12.2181818 C21.5023773,12.0326182 21.0503045,12.3018 21,11.7886364 C20.9719364,11.7427227 20.9949409,11.6973818 21,11.55 C21.1575,11.4606545 21.2426455,11.3824773 21.4772727,11.3590909 C21.6216,11.5080955 21.9416591,11.4582682 22.1454545,11.55 C22.5028364,11.7109364 23.0012045,12.1237773 23.6727273,11.9318182 C23.84655,11.8820864 24.3163773,11.7436773 24.6272727,11.8363636 C25.2107864,12.0102818 25.8253227,12.3566864 26.1545455,12.7909091 C26.3359091,13.0307864 26.4154227,13.3109455 26.6795455,13.4590909 C26.9388955,13.6045636 27.1759091,13.5306818 27.4909091,13.65 C27.9673071,13.8329847 28.3928524,14.1275929 28.7318182,14.5090909 C28.96635,14.78505 29.08605,15.2855182 29.2090909,15.6545455 C29.2714227,15.8416364 29.2056545,15.9871091 29.3045455,16.1318182 C29.3904545,16.2569591 29.5735364,16.3148045 29.6863636,16.4181818 C30.1236409,16.8190909 30.6175227,17.2323136 30.8318182,17.85 C30.9209727,18.1068682 31.0322727,18.6818864 30.9272727,19.0431818 C30.8854636,19.1872227 30.7320682,19.6247864 30.8318182,19.9022727 C30.9535227,20.24085 31.2787364,20.5737955 31.4045455,20.9045455 C31.5439091,21.2708045 31.4166682,21.7901727 31.4045455,22.1454545 C31.35615,23.5677273 30.9995318,24.6419727 30.5454545,25.6295455 C28.9687364,29.05875 26.0568,31.5900136 21.0477273,31.5954545 C20.9130409,31.3398273 20.3795455,31.05585 20.0454545,31.0227273 C19.8896727,31.1573182 19.7161364,31.03695 19.4727273,31.1181818 C19.0961591,31.2438955 19.2035455,31.5907773 18.6136364,31.5954545 C18.4890682,31.3959545 18.4425818,31.0998545 18.3272727,30.9272727 C18.1799864,30.7067727 17.8702364,30.5735182 17.7068182,30.3545455 C17.4889909,30.3916773 17.1864955,30.2661545 16.9431818,30.3068182 C16.6472727,30.3563591 16.4412818,30.7693909 16.0840909,30.4977273 C15.8740909,30.2723591 16.0673864,30.1949455 15.9886364,29.8772727 C15.8978666,29.5995493 15.7328123,29.3519678 15.5113636,29.1613636 C15.1736455,28.8713727 14.6403409,28.9410545 14.175,29.0181818 C14.0809773,28.9079318 14.0008909,28.9329409 13.9363636,28.7795455 C13.7715136,28.5761318 14.0822182,27.5523818 13.65,27.2045455 C13.6309091,27.1891773 12.9818182,26.8227273 12.9818182,26.8227273 C12.6826636,26.7183 12.5718409,26.9727818 12.3613636,26.7272727 C12.1173818,26.4013909 12.4802045,26.2193591 12.5522727,25.9636364 C12.5363636,25.6614273 12.5204545,25.3591545 12.5045455,25.0568182 C12.2425227,24.9284318 12.2270591,24.6973364 12.0272727,24.5318182 C11.655,24.2233091 11.2594364,24.5986364 11.2636364,23.8636364 C11.6504182,23.6166955 11.8330227,23.1497318 11.8363636,22.5272727 C11.7092182,22.4716227 11.1897545,21.7354773 11.1681818,21.5727273 C11.1161591,21.4652455 11.1636955,20.9305091 11.1681818,20.6659091 C11.3373273,20.5593818 11.4246682,20.51805 11.7409091,20.5227273 C11.8208134,20.8016851 11.8530845,21.0921242 11.8363636,21.3818182 C11.9582591,21.4350818 12.7724864,22.4916682 12.7909091,22.6704545 C12.4867909,22.8964909 12.4490864,23.4829636 12.3136364,23.8636364 C12.5602909,24.0068182 12.6271091,24.2887909 12.8386364,24.4363636 L13.3636364,24.6272727 L13.3636364,25.1045455 C13.1860909,25.2167045 13.2569182,25.8733364 13.2681818,26.1545455 Z M19.3295455,11.55 L19.7590909,11.55 C19.8789818,11.7287864 19.9487591,11.7440591 19.95,12.075 C19.6540909,12.28395 19.2754227,12.40995 18.7568182,12.4090909 C18.6502909,12.2399455 18.6089591,12.1526045 18.6136364,11.8363636 C18.6874227,11.8102091 19.2840136,11.5999227 19.3295455,11.55 Z M16.9909091,12.3136364 L17.2772727,12.3136364 C17.4030818,12.5013 17.4707591,12.5337545 17.4681818,12.8863636 C17.1619636,13.0738364 16.8811364,13.3433045 16.4181818,13.3636364 C16.2881727,13.1950636 16.1735318,13.1654727 16.1318182,12.8863636 C16.2772909,12.7813636 16.4011909,12.5923636 16.5613636,12.5045455 C16.7215364,12.4167273 16.8777,12.4425 16.9909091,12.3136364 Z M6.72954545,13.0295455 C7.04521364,13.0829045 7.16453182,13.1746364 7.15909091,13.5545455 C6.82433182,13.86 6.98221364,14.3247682 6.3,14.3181818 C6.18650455,14.1488455 6.11596364,14.1470318 6.10909091,13.8409091 C6.37722273,13.5545455 6.38934545,13.3225909 6.72954545,13.0295455 Z M10.5,13.2681818 L10.8818182,13.2681818 C10.9894909,13.4387591 11.0631818,13.4511682 11.0727273,13.7454545 C10.6693364,13.9976455 10.8211091,14.5090909 10.1181818,14.5090909 C10.0456364,14.3254364 9.95409545,14.2823864 9.92727273,14.0318182 C10.1362227,13.86 10.3581545,13.4997545 10.5,13.2681818 Z M14.8431818,13.6977273 C15.0969,13.7168182 15.2453318,13.77075 15.2727273,14.0318182 C15.33105,14.1339545 15.2912455,14.1640227 15.2727273,14.3181818 C14.8897636,14.4916227 14.8919591,14.8789773 14.3181818,14.8909091 C14.2569,14.8033773 14.2242545,14.8092 14.175,14.7 C14.09625,14.6140909 14.0916682,14.5801091 14.0795455,14.4136364 C14.3341227,14.175 14.5840227,13.9363636 14.8431818,13.6977273 Z M5.63181818,15.3681818 L5.775,15.3681818 C5.91751364,15.5468727 6.06241364,15.5495455 6.10909091,15.8454545 C5.82625909,16.1851773 5.98862727,16.7045455 5.44090909,16.8 C5.23730455,16.56585 5.14108636,16.5804545 5.15454545,16.0840909 C5.29963636,15.9516 5.24599091,15.79935 5.34545455,15.6068182 C5.39795455,15.5051591 5.55259091,15.4482682 5.63181818,15.3681818 Z M9.21136364,15.4636364 L9.49772727,15.4636364 C9.63451364,15.645 9.72977727,15.6478636 9.73636364,15.9886364 C9.40399091,16.2921818 9.59318182,16.7986636 8.925,16.8 C8.83909091,16.6773409 8.80930909,16.7217273 8.78181818,16.5136364 C8.61534545,16.2177273 9.06818182,15.6537818 9.21136364,15.4636364 Z M12.9818182,15.6545455 L13.3636364,15.6545455 C13.4894455,15.8422091 13.5571227,15.8746636 13.5545455,16.2272727 C13.2460364,16.3883045 13.3014955,16.8354136 12.8863636,16.8954545 C12.84045,16.9235182 12.7951091,16.9005136 12.6477273,16.8954545 C12.5412,16.7263091 12.4998682,16.6389682 12.5045455,16.3227273 C12.6702545,16.2316636 12.9090818,15.8322818 12.9818182,15.6545455 Z M4.77272727,17.9454545 L5.25,17.9454545 C5.29667727,18.0728864 5.31118636,18.02745 5.34545455,18.1840909 C5.45303182,18.3512318 5.30145,19.1363455 5.15454545,19.2340909 C5.06033182,19.2967091 4.87992273,19.2877364 4.725,19.2818182 C4.61341364,19.1295682 4.52378182,19.0996909 4.48636364,18.8522727 C4.58019545,18.7411636 4.71640909,18.0965591 4.77272727,17.9454545 Z M8.30454545,17.9454545 L8.68636364,17.9454545 C8.76272727,18.1254818 8.84863636,18.1207091 8.87727273,18.375 C8.51616818,18.7437409 9.02856818,19.2913636 8.16136364,19.2818182 C8.02390909,19.0844182 8.00863636,18.8460682 8.01818182,18.4704545 C8.09950909,18.3945682 8.23648636,18.05265 8.30454545,17.9454545 Z M11.8363636,17.9454545 L12.1704545,17.9454545 C12.2956909,18.1186091 12.3943909,18.165 12.4090909,18.4704545 C12.06975,18.8067409 12.3804545,19.2907909 11.6454545,19.2818182 C11.5319591,19.1124818 11.4614182,19.1106682 11.4545455,18.8045455 C11.4912,18.7701818 11.8026682,18.0267818 11.8363636,17.9454545 Z" id="new_vector_shape_done-2" fill="#E7E7E8"></path>
                        </g>
                        <path d="M48.3,11.6454545 C48.8647091,11.6223545 49.4995773,11.7206727 49.6363636,12.1227273 C49.8001636,12.3522955 49.6840909,13.2758182 49.6840909,13.7454545 C49.6840909,15.0739909 49.5059727,16.98585 49.7318182,18.1840909 L52.3090909,18.1840909 C52.5608045,18.0348955 52.9971273,18.1517318 53.2159091,17.9931818 C53.5904727,17.5503682 53.7060682,16.41255 53.9318182,15.7977273 C54.3536318,14.6492182 54.7342091,13.5136909 55.3636364,12.6 C55.6152545,12.2347909 55.9486773,11.5821682 56.4613636,11.5022727 L57.0818182,12.1227273 C57.3628042,12.4862415 57.6179745,12.8689969 57.8454545,13.2681818 C58.5249,14.5146273 58.7857773,16.03875 59.2772727,17.4681818 C59.3817,17.7720136 59.9419227,19.0350682 59.8977273,19.1863636 C59.7457636,19.3001455 59.4400227,19.3148455 59.2772727,19.2818182 C58.4451955,19.1127682 58.2015,18.7397318 57.9409091,18.0409091 C57.8740909,17.8613591 57.7752955,17.1966136 57.6545455,17.1340909 L55.0772727,17.1340909 C55.0613,17.1818182 55.0453909,17.2295455 55.0295455,17.2772727 C54.7527273,17.6781818 54.7408909,18.2826955 54.5045455,18.7090909 C54.3557318,18.9776045 54.0514227,19.0791682 53.8363636,19.2818182 L53.3113636,19.3295455 C53.0998364,19.2902182 52.8585273,19.1316682 52.5954545,19.1863636 C52.0122273,19.3076864 50.1472364,19.3271591 49.4931818,19.2340909 C49.0778591,19.1750045 48.6021136,19.2066955 48.3954545,18.9477273 C48.1405909,18.6284318 48.3,17.5041682 48.3,16.9909091 L48.3,11.6454545 Z M81.3272727,17.1340909 L78.7022727,17.1340909 L78.6545455,17.1818182 C78.5652208,17.7754872 78.3539704,18.3442383 78.0340909,18.8522727 C77.9016,19.0431818 77.6304136,19.1245091 77.4613636,19.2818182 C77.0439409,19.2962318 76.7470773,19.32315 76.4113636,19.1863636 C77.1246955,17.57175 77.4554455,15.6387 78.1772727,13.9840909 C78.6129273,12.9855409 79.2419727,12.2288727 79.9431818,11.5022727 C79.9794533,11.5070225 80.0130736,11.5238326 80.0386364,11.55 C80.4755318,11.7138 80.7396545,12.2372727 80.9931818,12.6 C81.9005727,13.8981818 82.2913636,15.5988 82.8545455,17.2772727 C82.9587818,17.5877864 83.5641545,19.0699091 83.5227273,19.1863636 C83.265,19.4131636 82.7252045,19.2972818 82.4727273,19.1863636 C81.8196273,18.8994273 81.4338,17.9291318 81.3272727,17.1340909 Z M178.022727,17.1340909 C177.987409,17.4338182 177.827045,17.7036682 177.736364,17.9454545 C177.377455,18.9059182 177.137864,19.5204545 175.827273,19.2340909 C175.811045,19.1863636 175.795773,19.1386364 175.779545,19.0909091 C176.241545,18.6012273 176.500227,16.9370727 176.781818,16.1795455 C177.2715,14.8647545 177.651409,13.4581364 178.404545,12.4090909 C178.653682,12.0624955 179.0145,11.8031455 179.311364,11.5022727 C179.347686,11.5068545 179.381359,11.5236909 179.406818,11.55 C179.913682,11.7418636 180.218182,12.40785 180.504545,12.8386364 C181.263409,13.9816091 181.592727,15.4478864 182.079545,16.8954545 C182.265682,17.4479455 182.414591,18.0956045 182.652273,18.6613636 C182.724818,18.8331818 182.847955,18.9613773 182.890909,19.1863636 L182.747727,19.2340909 C182.610273,19.3223864 182.336318,19.3052045 182.222727,19.2818182 C181.283455,19.0895727 181.131682,18.5563636 180.838636,17.7545455 C180.762273,17.5445455 180.767045,17.3391273 180.647727,17.1818182 C180.349909,16.9940591 178.523864,17.1288409 178.022727,17.1340909 Z M71.7340909,11.7409091 C71.6994409,12.2351727 71.1980182,13.2613091 71.0181818,13.7454545 C70.4556682,15.2601273 70.1271136,16.80105 69.3477273,18.0409091 C69.0813136,18.4647273 68.5481045,19.3783227 68.0113636,19.4727273 C67.8672273,19.2608182 67.5913636,19.1498045 67.4386364,18.9477273 C67.0109045,18.3826364 66.5413636,17.7665727 66.2454545,17.0863636 C65.7205182,15.5272727 65.1955182,13.9681818 64.6704545,12.4090909 L64.575,12.4090909 C64.2676364,12.915 63.3353318,12.8052273 62.5227273,12.7909091 C62.3494773,13.3159091 62.475,14.2227273 62.475,14.8431818 L62.475,19.3295455 C62.4387285,19.3342952 62.4051082,19.3511054 62.3795455,19.3772727 C61.9700455,19.30005 61.2409636,19.2317045 61.0909091,18.9 L61.0909091,12.8386364 C60.6841773,12.7019455 59.9636864,12.7869955 59.4681818,12.7909091 C58.9927227,12.4186364 58.8344591,12.4421182 58.7522727,11.6454545 C58.8132414,11.6203214 58.8775586,11.6042421 58.9431818,11.5977273 C59.2979864,11.8236682 60.0771818,11.7409091 60.6136364,11.7409091 L63.9545455,11.7409091 C64.4937682,11.6190136 65.2596,11.5278545 65.7204545,11.8363636 C66.15,12.1235864 66.2382955,12.6872455 66.4363636,13.2204545 C66.7865864,14.1632591 67.1376682,15.1936909 67.4863636,16.1318182 C67.6192364,16.4893909 67.8311455,17.4214091 68.1545455,17.5159091 C68.2545818,17.1531818 68.5019045,16.80735 68.6318182,16.4659091 C68.9879591,15.5295 69.2500773,14.5555773 69.5863636,13.65 C69.8299636,12.9940364 69.9126273,12.1906909 70.4454545,11.8363636 C70.8216409,11.5861773 71.2705636,11.6961409 71.7340909,11.7409091 Z M74.7886364,11.5977273 C75.2683909,11.7504545 75.9350455,11.6522318 76.125,12.075 L76.125,20.1409091 C76.0173273,20.2832318 76.0307864,20.5023955 75.9340909,20.6659091 C75.7644682,20.9528455 75.4978636,21.0662455 75.2659091,21.2863636 C74.4331636,21.33915 74.2903636,21.1972091 73.7386364,20.9045455 L73.7386364,20.8090909 C74.7569455,20.7184091 74.7409091,19.4543045 74.7409091,18.3272727 L74.7409091,13.6022727 C74.7409091,13.0104545 74.6290364,11.9430818 74.7886364,11.5977273 Z M86.0045455,11.5977273 C87.3403364,11.5583045 89.7057,11.6513727 89.2977273,13.2204545 C89.2235288,13.4517032 89.1276482,13.6754246 89.0113636,13.8886364 L88.9636364,13.8409091 C88.7753045,13.5621818 88.7614636,13.2617864 88.4863636,13.0772727 C87.8094955,12.6231955 85.4005091,12.4385864 85.0977273,13.3159091 C84.9259091,13.5247636 85.0381636,13.8495955 85.0977273,14.0795455 C86.6324455,15.0384818 88.9677409,14.3938773 89.5363636,16.4181818 C90.1308545,18.5343136 87.6965727,19.78305 85.6227273,19.2818182 C85.1191091,19.1601136 84.72975,19.2046909 84.3340909,18.9954545 C84.0426682,18.8412955 83.9282182,18.5563636 83.7136364,18.3272727 C83.6975045,17.7435682 83.8237909,17.4912818 84,17.1340909 L84.0954545,17.1340909 C84.2415,18.4109864 87.4806545,18.6835091 88.0090909,17.6113636 C88.1486455,17.3282455 88.02255,16.8368455 87.9613636,16.6090909 C87.7616727,16.4822318 87.5788773,16.2693682 87.3409091,16.1795455 C85.7604682,15.58305 84.1474773,16.1483318 83.6181818,14.4136364 C83.5184301,14.0383333 83.5184301,13.6434849 83.6181818,13.2681818 C83.74065,12.8617364 83.7917182,12.5696455 84.0477273,12.3136364 C84.2840727,12.0771955 84.7596273,11.8529727 85.0977273,11.7409091 C85.3701545,11.6506091 85.7682955,11.7386182 86.0045455,11.5977273 Z M120.081818,11.5977273 C121.154727,11.5770136 122.303045,11.59095 122.945455,12.0272727 C123.124909,12.1494545 123.226091,12.3948682 123.375,12.5522727 C123.394091,13.0746955 123.3645,13.6118182 123.088636,13.8409091 L123.088636,13.8886364 C123.072409,13.8726955 123.057136,13.85685 123.040909,13.8409091 C122.853818,13.5545455 122.841409,13.2636955 122.563636,13.0772727 C122.050091,12.7326818 120.374864,12.5352818 119.652273,12.8386364 C119.418409,12.9365727 119.294318,13.1515364 119.127273,13.3159091 C119.096389,13.5712325 119.112566,13.8300544 119.175,14.0795455 C119.324864,14.1743318 119.434636,14.3401364 119.604545,14.4136364 C120.644045,14.8646591 122.031955,14.6463545 122.897727,15.2727273 C123.20352,15.5238503 123.434622,15.8539956 123.565909,16.2272727 C123.622227,16.3990909 123.584045,16.6139591 123.661364,16.7522727 C123.654682,18.7694182 122.380364,19.3026273 120.368182,19.3295455 C119.733409,19.3380409 118.930636,19.2702682 118.411364,18.9954545 C118.116409,18.8393864 118.006636,18.56085 117.790909,18.3272727 C117.774682,17.7435682 117.900682,17.4912818 118.077273,17.1340909 L118.172727,17.1340909 C118.2615,17.9005909 119.009864,18.0695455 119.7,18.2318182 C120.656455,18.4571864 121.973727,18.1220455 122.086364,17.4681818 C122.209028,17.2623436 122.209028,17.0058383 122.086364,16.8 C121.783773,15.8072727 119.375455,16.0426636 118.506818,15.5113636 C117.399545,14.8336364 117.254455,12.9207273 118.363636,12.1227273 C118.6815,11.8943045 119.183591,11.7489273 119.604545,11.6454545 C119.776364,11.6032636 119.966318,11.6672182 120.081818,11.5977273 Z M134.447727,11.5977273 C135.643773,11.5736727 136.767273,11.6721818 137.454545,12.1704545 C137.614909,12.2870045 137.700818,12.5037818 137.836364,12.6477273 C137.878364,13.1345455 137.790545,13.4045864 137.693182,13.7931818 C137.634701,13.8344082 137.570342,13.8665876 137.502273,13.8886364 L137.502273,13.8409091 C137.319,13.6055182 137.228318,13.3375773 136.977273,13.1727273 C135.908182,12.4701818 133.642091,12.4510909 133.254545,13.7454545 C133.103727,14.24955 133.104682,16.7236364 133.254545,17.2295455 C133.332818,17.4931909 133.5705,17.8522909 133.779545,17.9931818 C134.461091,18.4527955 136.2585,18.3414955 136.5,17.6113636 C136.695682,17.3650909 136.696636,16.9073864 136.690909,16.4659091 C136.3845,16.3623409 135.8385,16.4143636 135.45,16.4181818 C135.383182,16.3759909 135.182727,16.3664455 135.115909,16.3227273 C134.721682,16.1952955 134.585182,15.6466227 134.638636,15.225 L134.781818,15.225 C135.317318,15.5794227 137.430682,15.3025091 138.122727,15.3681818 L138.122727,17.2772727 C137.995773,17.4726682 138.031091,17.7699136 137.931818,17.9931818 C137.729455,18.4490727 137.204455,18.8964682 136.738636,19.0909091 C135.009955,19.8130227 132.531955,19.2453545 131.965909,17.8977273 C131.681455,17.2191409 131.775,16.1134909 131.775,15.1772727 C131.775,14.4749182 131.715818,13.7044091 131.918182,13.1727273 C132.183545,12.4754318 132.862227,11.9809773 133.588636,11.7409091 C133.854,11.6530909 134.222455,11.7346091 134.447727,11.5977273 Z M147.381818,11.5977273 C149.151545,11.5712864 150.4125,11.8924909 150.913636,13.125 C151.1265,13.65 151.056818,14.47005 151.056818,15.1772727 C151.056818,17.6567045 151.044409,18.6995455 149.1,19.2818182 C148.568717,19.4135108 148.015377,19.4297855 147.477273,19.3295455 C147.049636,19.23495 146.698364,19.32 146.331818,19.1863636 C144.696682,18.5883409 144.709091,17.5159091 144.709091,15.3204545 C144.709091,14.6281227 144.615545,13.7701773 144.804545,13.2204545 C145.062273,12.4693227 145.698955,11.9740091 146.475,11.7409091 C146.746091,11.6595818 147.150818,11.7373773 147.381818,11.5977273 Z M159.695455,11.5977273 C161.515773,11.5705227 162.873136,11.8923 163.322727,13.2204545 C163.503136,13.7538545 163.418182,14.5554818 163.418182,15.225 C163.418182,17.6505 163.402909,18.7593 161.461364,19.2818182 C160.929468,19.4089692 160.377085,19.4252158 159.838636,19.3295455 C159.2955,19.2094636 158.884091,19.2765682 158.454545,19.0909091 C157.004591,18.4645364 157.070455,17.2639091 157.070455,15.225 C157.070455,14.4171682 157.015091,13.5576 157.261364,12.9818182 C157.519091,12.3783545 158.174864,11.9413636 158.836364,11.7409091 C159.093136,11.6634 159.474955,11.7307909 159.695455,11.5977273 Z M167.045455,15.225 C167.821819,15.3151908 168.602523,15.362989 169.384091,15.3681818 C169.680955,15.3681818 170.301409,15.3029864 170.434091,15.3681818 C170.595409,15.4737545 170.538136,16.9281 170.529545,17.2772727 C170.407364,17.4741955 170.433136,17.7794591 170.338636,17.9931818 C170.133409,18.4595727 169.616045,18.8887364 169.145455,19.0909091 C167.311773,19.8779318 164.778409,19.1916136 164.277273,17.6590909 C164.065364,17.0108591 164.181818,16.0185136 164.181818,15.225 C164.181818,14.5840227 164.100682,13.8235364 164.277273,13.3159091 C164.768864,11.8980273 166.692273,11.23605 168.620455,11.7409091 C169.087227,11.8629955 169.468091,11.8874318 169.813636,12.1227273 C170.2155,12.3961091 170.606864,13.6977273 169.909091,13.8886364 C169.687636,13.0094045 167.754682,12.3772091 166.568182,12.7909091 C166.055591,12.9696 165.749182,13.4234864 165.613636,13.9840909 L165.613636,15.1295455 C165.613636,16.2920864 165.491455,17.5270773 166.186364,17.9931818 C166.640727,18.2978727 168.067773,18.3784364 168.572727,18.0409091 C169.002273,17.7545455 169.113,17.2086409 169.097727,16.4659091 C168.791318,16.3623409 168.245318,16.4143636 167.856818,16.4181818 C167.751818,16.3486909 167.499818,16.3044 167.379545,16.275 C167.177182,15.9604773 167.042591,15.7853182 167.045455,15.225 Z M174.156818,11.5977273 C174.635045,11.7387136 175.147636,11.6687455 175.397727,12.0272727 C175.618227,12.3149727 175.493182,13.9285364 175.493182,14.4613636 L175.493182,15.8454545 C175.493182,17.5922727 175.970455,21.2386364 174.347727,21.2863636 C173.977364,21.5414182 173.190818,21.0583227 173.106818,20.8090909 C174.065182,20.7286227 174.109091,19.4307273 174.109091,18.375 L174.109091,13.6022727 C174.109091,13.0085455 173.991682,11.9462318 174.156818,11.5977273 Z M185.325,11.5977273 C186.465682,11.5752 187.614955,11.6109 188.284091,12.075 C188.427273,12.1743682 188.498864,12.3782591 188.618182,12.5045455 C188.662789,12.978908 188.580429,13.4565998 188.379545,13.8886364 L188.284091,13.8886364 C188.216318,12.8048455 186.056182,12.37425 184.943182,12.8386364 C184.665409,12.9546136 184.559455,13.1631818 184.370455,13.3636364 C184.350221,13.6220197 184.382696,13.8818203 184.465909,14.1272727 C186.102,15.0436364 188.106545,14.3270591 188.809091,16.3227273 C188.882591,16.5302455 189.0315,17.2671545 188.904545,17.6113636 C188.807057,17.879743 188.678938,18.1359818 188.522727,18.375 C187.806818,19.3601864 184.922182,19.7459182 183.606818,18.9477273 C183.108545,18.6452318 182.758227,17.6627182 183.368182,17.1818182 L183.368182,17.1340909 C183.384409,17.1500318 183.399682,17.1658773 183.415909,17.1818182 C183.583909,17.4077591 183.612545,17.6929773 183.845455,17.85 C184.615773,18.3687955 187.259864,18.59865 187.377273,17.3727273 C187.614,16.9785955 187.247455,16.5600273 187.043182,16.4181818 C186.195545,15.8289409 184.59,16.0164136 183.702273,15.4636364 C182.574955,14.7616636 182.616,12.7934864 183.702273,12.075 C184.015364,11.8679591 184.498364,11.7443455 184.895455,11.6454545 C185.054864,11.6057455 185.22,11.6619682 185.325,11.5977273 Z M72.1159091,11.6454545 C72.6731727,11.6229273 73.3166318,11.7237273 73.4522727,12.1227273 C73.6115864,12.3796909 73.5,13.7080364 73.5,14.1272727 L73.5,19.3295455 L73.4045455,19.3295455 C73.08735,19.4557364 72.2629091,19.1527636 72.1636364,18.8522727 C71.9903864,18.6040909 72.1159091,17.5401545 72.1159091,17.0386364 L72.1159091,11.6454545 Z M102.136364,11.7409091 C102.1125,12.0407318 101.943545,12.2305909 101.85,12.4568182 C101.689636,12.8455091 101.603727,13.2860318 101.468182,13.65 C100.895455,15.1875818 100.550864,16.7823409 99.75,18.0409091 C99.4779545,18.4687364 98.9596364,19.3767 98.4136364,19.4727273 C98.2704545,19.2545182 97.9955455,19.1518091 97.8409091,18.9477273 C97.5850909,18.6096273 97.2987273,18.2532955 97.0772727,17.8977273 C96.3842727,16.7855864 96.1322727,15.3468955 95.6454545,14.0318182 C95.4421364,13.4826682 95.3256818,12.8343409 95.0727273,12.2659091 C94.9973182,12.0969545 94.8751364,11.9805 94.8340909,11.7409091 C95.3018182,11.7109364 95.7399545,11.5805455 96.1227273,11.8363636 C96.5837727,12.1439182 96.6744545,12.7444227 96.8863636,13.3159091 C97.1889545,14.1313773 97.4896364,15.0259773 97.7931818,15.8454545 C97.9497273,16.2689864 98.1950455,17.3760682 98.5568182,17.5159091 L98.5568182,17.4681818 C98.8479545,17.1420136 98.9138182,16.6310455 99.0818182,16.1795455 C99.3853636,15.3634091 99.6841364,14.4724364 99.9886364,13.65 C100.317,12.7632273 100.393364,11.8769318 101.372727,11.6454545 C101.672455,11.5745318 101.880545,11.7160909 102.136364,11.7409091 Z M102.518182,11.6454545 C103.221682,11.6256 103.564364,11.7943636 103.902273,12.1227273 L103.902273,19.3295455 L103.806818,19.3295455 C103.4985,19.4685273 102.624136,19.1217409 102.518182,18.8522727 L102.518182,11.6454545 Z M151.915909,11.6454545 C152.500091,11.6217818 153.158727,11.7075 153.3,12.1227273 C153.515727,12.4316182 153.395455,13.3125682 153.395455,13.7931818 L153.395455,18.1840909 C154.576227,18.1923955 155.850545,18.1696773 156.831818,18.0409091 C156.857174,18.1018041 156.873262,18.166155 156.879545,18.2318182 C156.662864,18.5999864 156.806045,19.01025 156.402273,19.1863636 C156.120682,19.3091182 155.573727,19.2340909 155.209091,19.2340909 C154.187727,19.2340909 152.061,19.5345818 151.963636,18.6136364 C151.809955,18.3654545 151.915909,17.1089864 151.915909,16.7045455 L151.915909,11.6454545 Z M171.436364,11.6454545 C171.980455,11.6228318 172.628591,11.6992909 172.772727,12.075 C173.024727,12.3709091 172.868182,13.4920227 172.868182,13.9840909 L172.868182,19.2818182 L172.725,19.3295455 C172.431955,19.4885727 171.575727,19.0881409 171.484091,18.8045455 C171.327545,18.5519727 171.436364,17.2596136 171.436364,16.8477273 L171.436364,11.6454545 Z M104.904545,11.7409091 C107.373955,11.7088364 110.037136,11.4545455 110.965909,12.9818182 C111.347727,13.6098136 111.252273,14.7557455 111.252273,15.75 C111.252273,16.42095 111.313364,17.1627273 111.109091,17.6590909 C110.529682,19.0662818 109.109318,19.2340909 107.1,19.2340909 C106.3335,19.2340909 105.21,19.3633364 105,18.8045455 C104.752773,18.5147455 104.904545,17.4266591 104.904545,16.9431818 L104.904545,11.7409091 Z M112.159091,11.7409091 L115.643182,11.7409091 C116.155773,11.7409091 116.889818,11.6484136 117.313636,11.7886364 C117.216273,12.3165955 117.042545,12.4912773 116.740909,12.7909091 L113.590909,12.7909091 C113.433409,13.2608318 113.539364,14.0890909 113.543182,14.6522727 C114.153136,14.8551136 115.521955,14.7038182 116.263636,14.7 C116.378182,14.6160955 116.766682,14.5701818 116.836364,14.6045455 C116.867185,14.6459356 116.883914,14.6961223 116.884091,14.7477273 C116.658818,15.1317409 116.8125,15.4991455 116.359091,15.6545455 C116.0565,15.8853545 114.161727,15.7557273 113.590909,15.75 C113.387591,16.3593818 113.539364,17.4254182 113.543182,18.1363636 C113.828591,18.2308636 114.324,18.1840909 114.688636,18.1840909 L117.265909,18.1840909 C117.271034,18.2202466 117.287787,18.2537522 117.313636,18.2795455 C117.254455,18.6333955 117.152318,19.0336364 116.836364,19.1386364 C116.617773,19.3099773 116.015455,19.2340909 115.643182,19.2340909 C114.702,19.2340909 112.440682,19.4373136 112.206818,18.8045455 C111.974864,18.5342182 112.111364,17.5432091 112.111364,17.0863636 L112.111364,13.4590909 C112.111364,12.9340909 112.014,12.1758 112.159091,11.7409091 Z M139.029545,11.7409091 L144.184091,11.7409091 C144.185045,12.3657545 143.925409,12.4983409 143.611364,12.7909091 L140.461364,12.7909091 L140.461364,12.8863636 C140.322,13.1003727 140.406,14.4358773 140.461364,14.7 L143.181818,14.7 C143.307818,14.6161909 143.590364,14.57715 143.754545,14.5568182 C143.770773,14.5727591 143.786045,14.5886045 143.802273,14.6045455 C143.738318,15.0287455 143.690591,15.4827273 143.325,15.6068182 C143.013818,15.8881227 141.099955,15.7563955 140.461364,15.75 L140.461364,15.8454545 C140.307682,16.0850455 140.397409,17.8714773 140.461364,18.1840909 L144.136364,18.1840909 C144.170976,18.2919716 144.187112,18.4049249 144.184091,18.5181818 C143.991273,18.8045455 144.027545,19.1148682 143.611364,19.1863636 C143.399455,19.3240091 142.776136,19.2340909 142.465909,19.2340909 C141.455045,19.2340909 139.344545,19.51005 139.077273,18.7568182 C138.920727,18.5043409 139.029545,17.2117909 139.029545,16.8 L139.029545,11.7409091 Z M147.715909,12.6477273 C147.323591,12.8768182 146.748955,12.6529773 146.427273,13.0772727 C146.091273,13.5197045 145.990091,16.3116545 146.188636,17.1340909 C146.271682,17.4760091 146.252591,17.7618 146.475,17.9454545 C147.113591,18.4724591 149.139136,18.5181818 149.434091,17.6590909 C149.728091,17.2891091 149.625,16.3351364 149.625,15.7022727 C149.625,13.65 149.828318,12.6708273 147.715909,12.6477273 Z M160.077273,12.6477273 C159.939818,12.7286727 159.699273,12.6415227 159.504545,12.6954545 C159.116045,12.8032227 158.742818,13.0570364 158.597727,13.4113636 C158.400136,13.8936 158.502273,14.7389455 158.502273,15.3681818 C158.502273,17.0145818 158.256955,17.8780636 159.647727,18.2318182 C159.852955,18.2839364 160.197545,18.3972409 160.506818,18.3272727 C161.031818,18.2087182 161.5425,18.1371273 161.795455,17.7545455 C162.078,17.3270045 161.986364,16.4351727 161.986364,15.75 C161.986364,13.6722409 162.225955,12.6639545 160.077273,12.6477273 Z M106.384091,12.7909091 C106.239955,13.2273273 106.336364,13.9829455 106.336364,14.5090909 L106.336364,18.1363636 C106.806,18.2937682 107.6355,18.1881 108.197727,18.1840909 C108.302727,18.1213773 108.470727,18.1802727 108.627273,18.1363636 C108.903136,18.0587591 109.330773,17.8715727 109.486364,17.6590909 C109.907318,17.0821636 110.042864,14.0926227 109.581818,13.4113636 C109.074,12.6610909 107.655545,12.7728682 106.384091,12.7909091 Z M56.3181818,13.3159091 C55.9686273,14.0916682 55.5005182,15.0682636 55.4113636,16.0363636 C55.8812864,16.1937682 56.7100227,16.0881 57.2727273,16.0840909 C57.2987038,16.0584964 57.3321203,16.0417882 57.3681818,16.0363636 L57.3681818,15.9409091 C56.9768182,15.4617273 56.84175,13.5688636 56.3181818,13.3159091 Z M79.9431818,13.3159091 C79.5995455,14.0831727 79.1031818,15.0794318 79.0363636,16.0363636 L79.1318182,16.0363636 C79.3522227,16.1766818 80.5289864,16.0895318 80.8977273,16.0840909 C80.9295072,15.9919691 80.9456393,15.8951765 80.9454545,15.7977273 C80.8065682,15.6068182 80.8436045,15.3900409 80.7545455,15.1295455 C80.5742318,14.6022545 80.3796955,13.7753318 80.0386364,13.3636364 C80.0126598,13.3380419 79.9792434,13.3213336 79.9431818,13.3159091 Z M179.263636,13.3159091 C179.183455,13.6413136 178.989682,13.9363636 178.881818,14.2227273 C178.739591,14.6009182 178.725273,14.9317636 178.595455,15.3204545 C178.541045,15.4833955 178.331045,15.8676 178.404545,15.9886364 C178.567773,16.1648455 179.834455,16.0918227 180.218182,16.0840909 C180.244189,16.0585394 180.277591,16.0418386 180.313636,16.0363636 L180.313636,15.8454545 C180.130364,15.5965091 180.136091,15.2141182 180.027273,14.8909091 C179.820136,14.3660364 179.613318,13.8410364 179.406818,13.3159091 L179.263636,13.3159091 Z M124.234091,17.8977273 C124.63417,17.8833379 125.034569,17.9153698 125.427273,17.9931818 C125.549455,18.4131818 125.525591,19.0988318 125.522727,19.6636364 C125.429182,19.8086318 125.4645,20.0242636 125.379545,20.1886364 C125.279318,20.3822182 125.054045,20.4730909 124.902273,20.6181818 C124.445045,20.6328818 124.140545,20.6074909 123.9,20.4272727 C124.052727,20.2391318 124.286591,20.16315 124.377273,19.9022727 C124.617818,19.2134727 124.046045,18.5119773 124.234091,17.8977273 Z M134.495455,19.5681818 C134.879696,19.5549126 135.264164,19.5869516 135.640909,19.6636364 C135.67977,19.7334634 135.727938,19.797687 135.784091,19.8545455 C135.807,20.5812409 135.734455,21.1550182 135.306818,21.4295455 C134.9985,21.6852682 134.5365,21.5147864 134.209091,21.4295455 C134.192864,21.3818182 134.177591,21.3340909 134.161364,21.2863636 C134.376136,21.2178273 134.406682,21.0877227 134.543182,20.9522727 C134.5575,20.5460182 134.4105,19.8354545 134.495455,19.5681818 Z M166.902273,19.5681818 C167.286514,19.5549126 167.670982,19.5869516 168.047727,19.6636364 C168.193773,19.8993136 168.198545,20.2451455 168.190909,20.6659091 C167.9895,20.9645864 168.016227,21.2327182 167.713636,21.4295455 C167.408182,21.6829773 166.947136,21.5147864 166.615909,21.4295455 C166.599682,21.3818182 166.584409,21.3340909 166.568182,21.2863636 C167.329909,21.0763636 166.741909,20.11485 166.902273,19.5681818 Z M142.179545,31.6909091 C140.950091,31.8387682 140.589273,31.5273 140.222727,30.5454545 C140.129182,30.2938364 140.110091,29.7001091 139.888636,29.5909091 L137.359091,29.5909091 C136.693773,30.8976818 137.091818,31.91475 135.068182,31.6909091 C135.101591,31.4727 135.235227,31.3377273 135.306818,31.1659091 C135.540682,30.6065455 135.696273,29.9894318 135.879545,29.4477273 C136.449409,27.7628591 136.812136,26.1107318 137.740909,24.8181818 L138.6,23.9590909 C139.112591,24.1524818 139.455273,24.8107364 139.745455,25.2477273 C140.559682,26.4740318 140.808818,27.8838 141.368182,29.4 C141.536182,29.8549364 141.657409,30.3800318 141.845455,30.8795455 C141.945682,31.1458636 142.128,31.3611136 142.179545,31.6909091 Z M53.0727273,24.1022727 C53.66025,24.0819409 54.3136364,24.1989682 54.4568182,24.6272727 C54.5564727,24.7850591 54.5045455,25.1970409 54.5045455,25.4386364 L54.5045455,27.3954545 C54.5045455,28.2640909 54.67245,29.5105364 54.4090909,30.2113636 C53.9389773,31.4624864 51.8367818,32.3018182 50.0181818,31.6909091 C49.2866182,31.4451136 48.5883682,30.9968591 48.3,30.3068182 C48.0797864,29.7799091 48.1568182,28.9268318 48.1568182,28.2068182 L48.1568182,24.15 L48.2522727,24.0545455 C48.6892636,24.1862727 49.3126773,24.1445591 49.4931818,24.5318182 C49.7134909,24.7981364 49.5886364,25.7086773 49.5886364,26.1545455 C49.5886364,27.9405955 49.1812364,30.2092636 50.5909091,30.6409091 C51.6201955,30.9559091 52.7603045,30.5423045 53.025,29.7818182 C53.1872727,29.3145682 53.0727273,28.5240136 53.0727273,27.9681818 L53.0727273,24.1022727 Z M78.6068182,27.0613636 C78.6104455,27.4537773 78.4947545,27.6419182 78.4159091,27.9204545 C77.7457227,28.34475 76.4490682,28.2125455 75.3613636,28.2068182 C75.3453909,28.2545455 75.3294818,28.3022727 75.3136364,28.35 C75.1609091,28.5873 75.2504455,30.3326864 75.3136364,30.6409091 L78.9886364,30.6409091 C79.0204163,30.7330309 79.0365483,30.8298235 79.0363636,30.9272727 L78.8931818,31.3568182 C78.80775,31.4913136 78.6222818,31.5772227 78.5113636,31.6909091 L75.4568182,31.6909091 C74.8541182,31.6909091 74.2699364,31.71 73.9772727,31.4045455 C73.7914227,31.2104864 73.8818182,29.9560227 73.8818182,29.5431818 L73.8818182,24.2454545 C74.2928455,24.1096227 75.0054136,24.1977273 75.5045455,24.1977273 L78.8931818,24.1977273 C78.9091545,24.15 78.9250636,24.1022727 78.9409091,24.0545455 C78.9409091,24.0545455 80.1898364,24.1977273 80.4204545,24.1977273 L84.2386364,24.1977273 C84.4745714,24.1373672 84.7135439,24.0895727 84.9545455,24.0545455 L85.0022727,24.1022727 C84.9390271,24.3929162 84.8593538,24.6797401 84.7636364,24.9613636 C84.2074227,25.2936409 83.6220955,25.2532636 82.7113636,25.2477273 C82.5381136,25.7727273 82.6636364,26.6795455 82.6636364,27.3 L82.6636364,31.7863636 C82.6026677,31.8114967 82.5383505,31.827576 82.4727273,31.8340909 C82.3677273,31.7706136 82.2002045,31.8296045 82.0431818,31.7863636 C81.7848818,31.7151545 81.333,31.5352227 81.2318182,31.3090909 L81.2318182,25.2954545 C80.8376864,25.1629636 80.1388636,25.2438136 79.6568182,25.2477273 C79.5997222,25.2122844 79.5329669,25.1955956 79.4659091,25.2 C79.3158545,25.0062273 79.1556818,24.9220364 79.0363636,24.675 L78.9409091,24.675 C78.8836364,24.9314864 78.7353,25.1534182 78.4636364,25.2 C78.2885727,25.3098682 77.8193182,25.2477273 77.5568182,25.2477273 L75.3136364,25.2477273 L75.3136364,25.3431818 C75.1552773,25.6072091 75.2573182,26.8614818 75.3136364,27.1568182 L78.0818182,27.1568182 C78.1976045,27.0779727 78.4254545,27.0649909 78.6068182,27.0613636 Z M93.7840909,24.0545455 C95.4345,24.0300136 96.7355455,24.4463864 97.1727273,25.6295455 C97.3626818,26.1425182 97.2681818,26.97765 97.2681818,27.6340909 C97.2681818,30.2616682 97.2739091,31.2585955 95.1204545,31.7863636 C94.6851818,31.8929864 93.9578182,31.8770455 93.5454545,31.7863636 C92.9863773,31.6633227 92.5929136,31.7219318 92.1613636,31.5 C90.9474682,30.8757273 90.9204545,29.6414045 90.9204545,27.7772727 C90.9204545,27.0210818 90.84495,26.1559773 91.0636364,25.5818182 C91.3525773,24.8231455 92.0984591,24.3727909 92.925,24.15 C93.2075455,24.0736364 93.5635909,24.1874182 93.7840909,24.0545455 Z M106.861364,24.0545455 C108.498409,24.0311591 109.733591,24.4392273 110.202273,25.5818182 C110.417045,26.1048136 110.345455,26.9228591 110.345455,27.6340909 C110.345455,30.2768455 110.314909,31.2562091 108.15,31.7863636 C107.629654,31.8852244 107.095346,31.8852244 106.575,31.7863636 C106.237091,31.7116227 106.012773,31.7913273 105.715909,31.6909091 C104.907409,31.4173364 104.301273,30.8974909 104.045455,30.0681818 C103.859318,29.463 103.997727,28.5196227 103.997727,27.825 C103.997727,27.0613636 103.892727,26.0946955 104.140909,25.5340909 C104.468318,24.7929818 105.160364,24.3790909 106.002273,24.15 C106.271455,24.0766909 106.646591,24.1837909 106.861364,24.0545455 Z M119.222727,24.0545455 C120.711818,24.0329727 121.971818,24.3750818 122.468182,25.3431818 C122.748818,25.8909 122.706818,26.7123818 122.706818,27.5386364 C122.706818,30.2186182 122.729727,31.2136364 120.559091,31.7863636 C120.121909,31.9016727 119.352545,31.8785727 118.936364,31.7863636 C118.480091,31.6853727 118.169864,31.7423591 117.790909,31.5954545 C116.338091,31.0322727 116.359091,29.8221 116.359091,27.825 C116.359091,27.1186364 116.259818,26.2415045 116.454545,25.6772727 C116.713227,24.9274773 117.393818,24.4307318 118.172727,24.1977273 C118.467682,24.1096227 118.966909,24.2085136 119.222727,24.0545455 Z M128.386364,28.875 C127.809818,28.8822545 127.155,28.8818727 126.715909,28.7795455 C126.506864,28.4645455 126.322636,28.2539727 126.286364,27.7295455 C126.302591,27.7136045 126.317864,27.6977591 126.334091,27.6818182 C127.286727,27.8691955 128.827364,27.7177091 129.818182,27.825 L129.818182,29.7818182 C129.741818,29.9009455 129.780955,30.0533864 129.722727,30.2113636 C129.540797,30.7011994 129.206134,31.1195272 128.768182,31.4045455 C128.3205,31.6786909 127.856591,31.6548273 127.240909,31.7863636 C125.488364,32.1608318 123.963,31.2995455 123.565909,30.1159091 C123.399818,29.62155 123.470455,28.9212955 123.470455,28.3022727 C123.470455,26.7517091 123.399818,25.3747773 124.281818,24.7227273 C125.3595,23.9262545 127.9635,23.8077 129.15,24.6272727 C129.312273,24.73905 129.396273,24.9626045 129.531818,25.1045455 C129.592708,25.5485717 129.509036,26.0004045 129.293182,26.3931818 C129.261682,26.3772409 129.229227,26.3613955 129.197727,26.3454545 C129.137591,26.1981682 129.066,25.9782409 128.959091,25.8681818 C128.478955,25.3726773 126.462,24.8427136 125.570455,25.3909091 C124.797273,25.8661773 124.902273,27.0017045 124.902273,28.2545455 L124.902273,29.4 C124.978636,29.7274091 125.099864,30.1773818 125.331818,30.3545455 C125.923636,30.8068091 127.377409,30.8827909 128.004545,30.4022727 C128.352955,30.135 128.399727,29.5074818 128.386364,28.875 Z M133.493182,24.0545455 C133.939909,24.2021182 134.602364,24.1786364 134.781818,24.5795455 L134.781818,32.4545455 C134.632909,32.6965227 134.651045,33.0368182 134.495455,33.2659091 C134.119364,33.8203091 132.745773,34.0658182 132.395455,33.3136364 C133.454045,32.8885773 133.35,31.8294136 133.35,30.3545455 L133.35,24.15 C133.402753,24.1264552 133.451159,24.0941848 133.493182,24.0545455 Z M144.804545,24.0545455 C146.369045,24.0215182 147.126,24.1786364 147.906818,24.9613636 C147.965481,25.4361647 147.882456,25.9177116 147.668182,26.3454545 L147.572727,26.3454545 C147.464864,25.3580727 146.383364,25.2 145.281818,25.2 C144.887591,25.2 144.529636,25.1802409 144.231818,25.2954545 C143.964545,25.3988318 143.843318,25.6354636 143.659091,25.8204545 L143.659091,26.4409091 C143.831864,26.5686273 143.921591,26.7774818 144.136364,26.8704545 C144.462818,27.0117273 144.747273,26.9639045 145.138636,27.0613636 C146.479773,27.3954545 147.593727,27.4169318 148.05,28.6363636 C148.151182,28.9055455 148.301045,29.4792273 148.193182,29.925 C148.136155,30.1923467 148.039642,30.4497135 147.906818,30.6886364 C147.616636,31.1519727 147,31.5185182 146.427273,31.6909091 C145.219773,32.0544 142.869682,31.7783455 142.418182,30.975 C142.314136,30.7897227 142.318909,30.5427818 142.322727,30.2590909 C142.459227,30.1020682 142.566136,29.7710318 142.656818,29.5909091 L142.752273,29.5909091 C142.804773,30.5302773 143.718273,30.5213045 144.565909,30.6886364 C145.689409,30.9105682 146.969455,30.5626364 146.618182,29.1136364 C146.3385,28.93485 146.124682,28.7070955 145.759091,28.5886364 C144.047591,28.0342364 142.163318,28.5416727 142.179545,26.2022727 C142.173436,25.9913749 142.205782,25.7811272 142.275,25.5818182 C142.400045,25.2565091 142.483091,24.99 142.704545,24.7704545 C142.995682,24.4809409 143.550273,24.2681727 143.993182,24.15 C144.269045,24.0765 144.592636,24.1815 144.804545,24.0545455 Z M154.588636,24.0545455 C155.757955,24.0305864 156.849955,24.2115682 157.5,24.7227273 L157.786364,25.1522727 C157.833528,25.5804996 157.750356,26.0129921 157.547727,26.3931818 C157.5315,26.3772409 157.516227,26.3613955 157.5,26.3454545 C157.264227,26.0930727 157.134409,25.7676682 156.831818,25.5818182 C155.9985,25.0696091 153.956727,24.9783545 153.395455,25.7727273 C153.013636,26.3125227 153.109091,27.3966 153.109091,28.3022727 C153.109091,28.8177273 153.057545,29.3685955 153.204545,29.7818182 C153.600682,30.8910955 155.794227,31.0279773 156.831818,30.3545455 C157.120091,30.1674545 157.299545,29.6768182 157.547727,29.5431818 L157.547727,29.5909091 C158.147182,30.2181409 157.623136,31.0673045 157.118182,31.3568182 C155.982273,32.0077227 153.673227,31.9887273 152.631818,31.2613636 C152.259545,31.00125 151.922591,30.4924773 151.772727,30.0204545 C151.7565,29.5431818 151.740591,29.0659091 151.725,28.5886364 C151.725,27.2764227 151.606636,25.8586364 152.154545,25.1045455 C152.494364,24.6368182 153.195,24.3218182 153.825,24.15 C154.079864,24.0806045 154.391045,24.1739591 154.588636,24.0545455 Z M176.972737,24.0545455 C176.973682,24.3782318 176.903045,24.4982182 176.877273,24.7704545 C176.660591,24.9437045 176.626227,25.1625818 176.256818,25.2 C175.973318,25.3813636 175.079864,25.2541227 174.681818,25.2477273 C174.512864,25.7604136 174.634091,26.6450864 174.634091,27.2522727 L174.634091,31.6431818 C174.660818,31.6771636 174.702818,31.6451864 174.681818,31.7386364 L174.634091,31.7386364 C174.617864,31.7704227 174.602591,31.8023045 174.586364,31.8340909 C174.133909,31.7534318 173.412273,31.7175409 173.25,31.3568182 L173.25,25.2954545 C172.843364,25.1587636 172.122682,25.2438136 171.627273,25.2477273 C171.444,25.1082682 171.237818,25.1088409 171.15,24.8659091 C170.986773,24.6934227 170.964818,24.3857727 170.911364,24.1022727 C170.987768,24.0734349 171.068381,24.0573121 171.15,24.0545455 C171.392455,24.2618727 172.272545,24.1977273 172.772727,24.1977273 L176.256818,24.1977273 C176.491918,24.1337613 176.73111,24.0859228 176.972737,24.0545455 Z M185.563636,24.0545455 C186.736773,24.0217091 188.524636,24.1233682 188.618182,25.1522727 C188.838682,25.4751 188.486455,26.1332591 188.379545,26.3454545 L188.284091,26.3454545 C188.196273,25.4900864 187.296136,25.2079227 186.375,25.2 C185.525455,25.19265 184.540364,25.1593364 184.418182,25.8681818 C184.293136,26.04 184.354227,26.1915818 184.370455,26.4409091 C184.538455,26.5643318 184.644409,26.7792955 184.847727,26.8704545 C185.164636,27.0127773 185.472,26.9665773 185.85,27.0613636 C187.185409,27.3964091 188.177182,27.4101545 188.713636,28.5409091 C188.832,28.7911909 189.085909,29.5772591 188.904545,30.0681818 C188.807057,30.3365612 188.678938,30.5928 188.522727,30.8318182 C187.808727,31.8137591 185.155091,32.2311818 183.75,31.5 C183.183955,31.2053318 182.644636,30.2072591 183.368182,29.6386364 L183.368182,29.5909091 C183.384409,29.60685 183.399682,29.6226955 183.415909,29.6386364 C183.5925,29.8951227 183.638318,30.1827273 183.893182,30.3545455 C184.469727,30.7430455 186.269045,30.8986364 186.9,30.5454545 C187.104273,30.4309091 187.219773,30.1862591 187.377273,30.0204545 C187.404,29.7503182 187.479409,29.4118364 187.329545,29.2090909 C187.025045,28.3966773 184.281682,28.3717636 183.463636,27.7772727 C182.807864,27.3007636 182.672318,25.8082364 183.177273,25.0568182 C183.3615,24.7826727 183.776727,24.4875273 184.084091,24.3409091 C184.426773,24.1776818 185.296364,24.2149091 185.563636,24.0545455 Z M111.252273,24.1022424 C111.779182,24.1000773 112.483636,24.2168182 112.636364,24.5795455 L112.636364,30.5931818 C113.212909,30.78495 114.856636,30.6444409 115.595455,30.6409091 C115.707136,30.5572909 116.044091,30.5072727 116.120455,30.5454545 C116.155987,30.6025125 116.172683,30.6692971 116.168182,30.7363636 C116.088955,30.8637955 116.134773,31.0522227 116.072727,31.2136364 C115.992545,31.4215364 115.785409,31.5419045 115.643182,31.6909091 C114.226636,31.7081864 112.000636,31.9648636 111.252273,31.2613636 L111.252273,24.1022424 Z M130.725,24.1022727 C131.4495,24.0847091 131.805545,24.2859273 132.156818,24.6272727 L132.156818,29.5431818 C132.156818,30.2312182 132.303818,31.2454227 132.109091,31.8340909 C131.606045,31.7554364 131.069591,31.7345318 130.820455,31.4045455 C130.563682,31.0636773 130.725,29.9334955 130.725,29.4 L130.725,24.1022727 Z M55.4113636,24.1977273 C55.9146955,24.1997318 56.4879955,24.1605 56.8431818,24.3409091 C57.4262182,24.6368182 57.7395955,25.5116591 58.0840909,26.0590909 C58.7761364,27.1586318 59.64,28.2242864 60.2318182,29.4 L60.3272727,29.4 L60.3272727,29.2090909 C60.1399909,28.92855 60.2318182,28.2144545 60.2318182,27.7772727 L60.2318182,24.2454545 C60.3556846,24.2090607 60.4846227,24.1929434 60.6136364,24.1977273 C60.7873636,24.3055909 61.0265727,24.2594864 61.2340909,24.3409091 C61.4210864,24.4143136 61.5293318,24.5946273 61.6636364,24.7227273 L61.6636364,31.7863636 L61.5681818,31.7863636 C61.1686091,31.9898727 60.2434636,31.5859091 59.9931818,31.4045455 C59.7998864,31.2644182 59.7422318,31.0418182 59.6113636,30.8318182 C58.9582636,29.7818182 58.2414,28.7132045 57.5590909,27.6818182 C57.2990727,27.2887364 57.1326955,26.7039818 56.7477273,26.4409091 L56.7477273,26.6795455 C56.8997864,26.9208545 56.7954545,27.6245455 56.7954545,27.9681818 L56.7954545,30.6886364 C56.7954545,31.0527955 56.8431818,31.5499227 56.7477273,31.8340909 C56.2016318,31.7372045 55.545,31.7122909 55.3636364,31.2613636 L55.3636364,25.8681818 C55.3636364,25.3577864 55.26885,24.6184909 55.4113636,24.1977273 Z M65.625,24.1977273 C66.0515864,24.2000182 66.6112364,24.1213636 66.9613636,24.2454545 C67.4392091,24.4152682 67.5668318,24.9845591 67.7727273,25.4386364 C68.2073318,26.3970955 68.7321409,27.3591818 69.1568182,28.35 C69.1930897,28.3452502 69.22671,28.3284401 69.2522727,28.3022727 C69.4695273,28.0578136 69.5226955,27.7026273 69.6818182,27.3954545 C70.0413955,26.7012136 70.4263636,25.9477909 70.7795455,25.2477273 C71.0380364,24.7351364 70.9609091,24.1797818 71.7818182,24.1977273 C72.1636364,24.4223318 72.5444045,24.2691273 72.7840909,24.6272727 C73.0202455,24.9388364 72.8795455,25.9455 72.8795455,26.4409091 L72.8795455,30.1159091 C72.8795455,30.6409091 72.9770045,31.3989136 72.8318182,31.8340909 C72.33975,31.7577273 71.7761864,31.7403545 71.5431818,31.4045455 C71.3636318,31.1678182 71.4477273,30.5103273 71.4477273,30.1159091 C71.4477273,29.0191364 71.4717818,27.8457136 71.4954545,26.8227273 L71.4,26.8227273 L71.4,26.9181818 C71.1558273,27.1920409 71.0989364,27.5712818 70.9227273,27.9204545 C70.6591773,28.4424955 70.3382591,29.0165591 70.0636364,29.5431818 C69.9115773,29.8347 69.8565955,30.32715 69.4909091,30.4022727 C69.2246864,30.2272091 68.8721727,30.2442 68.6318182,30.0681818 C68.3627318,29.8711636 68.3157682,29.5233273 68.1545455,29.2090909 C67.7737773,28.4670273 67.2718773,27.63285 67.0090909,26.8227273 L66.9613636,26.8227273 L66.9613636,27.1568182 C67.1030182,27.3811364 67.0090909,28.0266955 67.0090909,28.35 L67.0090909,30.7363636 C67.0090909,31.0870636 67.0528091,31.5625227 66.9613636,31.8340909 C66.4570773,31.7448409 65.7469909,31.7222182 65.5772727,31.3090909 L65.5772727,25.8681818 C65.5772727,25.3578818 65.4823909,24.6183 65.625,24.1977273 Z M90.3954545,30.6409091 C90.4015636,31.0063091 90.3179455,31.1443364 90.2522727,31.4045455 C90.1463182,31.4740364 90.0272864,31.6469045 89.9181818,31.6909091 L85.9568182,31.6909091 C85.7242909,31.5218591 85.4430818,31.5660545 85.3363636,31.2613636 C85.0903773,30.9343364 85.2409091,29.8677273 85.2409091,29.3522727 L85.2409091,24.2454545 L85.3363636,24.2454545 C85.5963818,24.0831818 86.3543864,24.1977273 86.7204545,24.1977273 L90.3477273,24.1977273 C90.3841211,24.3215937 90.4002384,24.4505318 90.3954545,24.5795455 C90.2331818,24.8008091 90.2567591,25.0506136 89.9659091,25.1522727 C89.7961909,25.2987 89.3711318,25.2477273 89.0590909,25.2477273 L86.7204545,25.2477273 C86.56305,25.71765 86.6687182,26.5463864 86.6727273,27.1090909 C87.3027273,27.3190909 88.7234727,27.1606364 89.4886364,27.1568182 C89.6359267,27.0817285 89.8010681,27.0487003 89.9659091,27.0613636 C90.0088125,27.15031 90.0253732,27.2496742 90.0136364,27.3477273 C89.9457598,27.4631712 89.9126173,27.5957412 89.9181818,27.7295455 C89.7348668,27.8792426 89.5596206,28.0385572 89.3931818,28.2068182 C88.5245455,28.2014727 87.4554545,28.1023909 86.6727273,28.2545455 L86.6727273,30.5931818 C86.9577545,30.6876818 87.4533545,30.6409091 87.8181818,30.6409091 L90.3954545,30.6409091 Z M98.2227273,24.1977273 C100.8315,24.1630773 103.612091,23.7643636 103.329545,26.6795455 C103.301881,26.9991876 103.204107,27.308804 103.043182,27.5863636 C102.872318,27.8472409 102.485727,28.1314091 102.184091,28.2545455 C101.969318,28.3420773 101.730682,28.2648545 101.611364,28.4454545 C102.465682,28.9632955 102.770182,29.8655318 103.281818,30.7363636 C103.451727,31.0251136 103.736182,31.3272273 103.806818,31.6909091 L103.711364,31.6909091 C103.269409,31.9981773 102.419864,31.6843227 102.184091,31.4522727 C101.362227,30.6446318 101.122636,28.6740682 99.6068182,28.5409091 C99.581462,28.6018041 99.5653743,28.666155 99.5590909,28.7318182 C99.6631364,28.8987682 99.6068182,29.3384318 99.6068182,29.5909091 L99.6068182,31.7386364 C99.5753182,31.7704227 99.5428636,31.8023045 99.5113636,31.8340909 C99.0255,31.6926273 98.3859545,31.7657455 98.2227273,31.3090909 C98.0776364,31.0764682 98.175,29.9235682 98.175,29.5431818 L98.175,25.9159091 C98.175,25.3909091 98.0776364,24.6329045 98.2227273,24.1977273 Z M160.029545,27.1568182 L162.511364,27.1568182 C162.7395,27.15615 163.234909,27.0148773 163.275,27.0613636 C163.338955,27.1568182 163.3275,27.3719727 163.322727,27.5386364 C163.118455,27.7701136 163.080273,28.0995273 162.75,28.2068182 L160.077273,28.2068182 C159.870136,28.8288955 160.025727,29.9164091 160.029545,30.6409091 L163.704545,30.6409091 C163.736556,30.7329722 163.752694,30.8298042 163.752273,30.9272727 C163.572818,31.2000818 163.591909,31.5625227 163.275,31.6909091 L159.313636,31.6909091 C159.182864,31.5922091 158.977636,31.5954545 158.836364,31.5 C158.757136,31.4045455 158.676955,31.3090909 158.597727,31.2136364 L158.597727,24.2454545 C159.009136,24.1096227 159.721227,24.1977273 160.220455,24.1977273 L163.704545,24.1977273 C163.736556,24.2897904 163.752694,24.3866224 163.752273,24.4840909 C163.559455,24.7895455 163.601455,25.1215364 163.179545,25.2 C163.004864,25.3098682 162.535227,25.2477273 162.272727,25.2477273 L160.077273,25.2477273 C159.915955,25.73025 160.025727,26.5806545 160.029545,27.1568182 Z M164.420455,24.1977273 C164.934,24.2007818 165.481909,24.1655591 165.852273,24.3409091 C166.2885,24.5475682 166.497545,25.1403409 166.759091,25.5340909 C167.342318,26.4122727 167.964682,27.3170864 168.525,28.2068182 C168.748364,28.5618136 168.921136,29.0945455 169.240909,29.3522727 L169.240909,29.4 C169.257136,29.3840591 169.272409,29.3682136 169.288636,29.3522727 C169.326818,29.2693227 169.240909,28.3087636 169.240909,27.9681818 L169.240909,24.2454545 C169.348888,24.2112691 169.461769,24.1951432 169.575,24.1977273 C169.943455,24.4172727 170.343409,24.2782909 170.577273,24.6272727 C170.828318,24.9613636 170.672727,26.0597591 170.672727,26.5840909 L170.672727,31.7386364 C170.602647,31.7903272 170.520487,31.8231913 170.434091,31.8340909 C170.318591,31.7613545 170.128636,31.82865 169.956818,31.7863636 C169.521545,31.6796455 168.995591,31.4839636 168.763636,31.1659091 C168.565091,30.8928136 168.467727,30.5944227 168.286364,30.3068182 C167.7375,29.4368455 167.138045,28.539 166.568182,27.6818182 C166.3095,27.2922682 166.139591,26.7016909 165.756818,26.4409091 L165.756818,26.6795455 C165.908591,26.9208545 165.804545,27.6245455 165.804545,27.9681818 L165.804545,30.6886364 C165.804545,31.0527955 165.852273,31.5499227 165.756818,31.8340909 C165.0705,31.7205 164.759318,31.6357364 164.372727,31.2613636 L164.372727,26.4409091 C164.372727,25.7663318 164.2305,24.7737 164.420455,24.1977273 Z M177.306818,24.1977273 C180.075,24.1614545 182.574955,23.7728591 182.413636,26.6318182 C182.403894,26.9696639 182.305109,27.2989461 182.127273,27.5863636 C181.899758,27.8758913 181.604804,28.1052997 181.268182,28.2545455 C181.053409,28.3420773 180.814773,28.2648545 180.695455,28.4454545 C181.525909,28.9490727 181.810364,29.8035818 182.318182,30.6409091 C182.5005,30.9417818 182.816455,31.3116682 182.890909,31.6909091 L182.795455,31.6909091 C182.501455,31.8961364 181.771227,31.7816864 181.506818,31.6431818 C180.960818,31.3568182 180.824318,30.5910818 180.504545,30.0681818 C180.299827,29.7551756 180.059595,29.4668967 179.788636,29.2090909 C179.663591,29.0837591 178.908545,28.3786364 178.738636,28.5409091 C178.629818,28.7178818 178.690909,29.1837955 178.690909,29.4477273 C178.690909,30.1645909 178.844591,31.2176455 178.643182,31.8340909 C178.1325,31.7439818 177.429955,31.7260364 177.259091,31.3090909 L177.259091,25.8681818 C177.259091,25.3578818 177.164591,24.6183955 177.306818,24.1977273 Z M93.8795455,25.1045455 C93.7125,25.2054409 93.4786364,25.1337545 93.2590909,25.2 C92.9851364,25.2825682 92.61,25.5296045 92.4954545,25.7727273 C92.2604455,26.2709045 92.3522727,27.1447909 92.3522727,27.825 C92.3522727,28.8891273 92.2361045,30.1191545 92.8772727,30.5454545 C93.15075,30.7268182 93.4339636,30.6522682 93.8318182,30.7363636 C94.1622716,30.8060846 94.5036375,30.8060846 94.8340909,30.7363636 C96.1103182,30.3810818 95.8363636,29.19 95.8363636,27.6340909 L95.8363636,26.1068182 C95.6005909,25.3446136 94.8885,25.09185 93.8795455,25.1045455 Z M106.956818,25.1045455 C106.863273,25.1605773 106.721045,25.1155227 106.575,25.1522727 C106.112045,25.2686318 105.693,25.4609727 105.525,25.8681818 C105.322636,26.3601545 105.429545,27.2318455 105.429545,27.8727273 C105.429545,28.7779227 105.282545,30.0611182 105.811364,30.45 C106.137818,30.6896864 106.405091,30.6306 106.909091,30.7363636 C107.160136,30.7889591 107.602091,30.8222727 107.911364,30.7363636 C109.099773,30.4054227 108.913636,29.1341591 108.913636,27.6340909 C108.913636,27.0470455 108.991909,26.3160545 108.818182,25.8681818 C108.589091,25.2788455 107.780591,25.0974818 106.956818,25.1045455 Z M119.318182,25.1045455 C119.224636,25.1604818 119.082409,25.1154273 118.936364,25.1522727 C118.494409,25.2634773 118.037182,25.4713773 117.886364,25.8681818 C117.6945,26.3732318 117.790909,27.2207727 117.790909,27.8727273 C117.790909,28.8339545 117.646773,30.1033091 118.220455,30.4977273 C118.529727,30.7104 118.810364,30.6397636 119.270455,30.7363636 C119.5215,30.7889591 119.963455,30.8222727 120.272727,30.7363636 C121.527955,30.3868091 121.275,29.1273818 121.275,27.5863636 C121.275,27.0220364 121.359,26.2941955 121.179545,25.8681818 C120.933273,25.2823773 120.158182,25.0941409 119.318182,25.1045455 Z M99.6068182,25.2477273 C99.5419091,25.7181273 99.5304545,26.9245773 99.6068182,27.3954545 L101.086364,27.3954545 C101.222864,27.2993318 101.423318,27.3006682 101.563636,27.2045455 C101.688682,27.1192091 101.745955,26.9315455 101.85,26.8227273 C101.889136,26.355 101.9025,26.103 101.802273,25.6772727 C101.116909,25.2226227 100.7475,25.2428591 99.6068182,25.2477273 Z M178.690909,25.2477273 L178.690909,27.3954545 C179.512773,27.4195091 180.6315,27.5195455 180.838636,26.9181818 C180.969409,26.7845455 181.097318,26.1074864 180.934091,25.8681818 C180.740318,25.1427273 179.614909,25.2286364 178.690909,25.2477273 Z M138.6,25.7727273 C138.202909,26.51775 137.798182,27.5648864 137.645455,28.4931818 C138.128455,28.6547864 138.978,28.5449182 139.554545,28.5409091 C139.579902,28.4800141 139.595989,28.4156632 139.602273,28.35 C139.190864,27.7404273 139.150773,26.2063773 138.6,25.7727273 Z M126.143182,32.0727273 C126.540273,32.0678591 127.013727,32.0561182 127.336364,32.1204545 C127.377534,32.1789687 127.409709,32.2433188 127.431818,32.3113636 C127.535864,32.4615136 127.469045,32.87655 127.431818,33.0272727 C127.308682,33.5279318 127.305818,33.9668318 126.715909,33.9818182 C126.480136,34.1529682 125.940818,33.9558545 125.856818,33.7909091 C126.477273,33.4868864 126.191864,32.7621 126.143182,32.0727273 Z" id="text" fill="#354052"></path>
                    </g>
                </g>
            </g>
        </g>
    </g>
</svg>